<svg id="svg" xmlns="http://www.w3.org/2000/svg" xmlns:xlink="http://www.w3.org/1999/xlink" width="400" height="289.4009216589862" viewBox="0, 0, 400,289.4009216589862"><g id="svgg"><path id="path0" d="M94.009 34.299 C 94.009 48.686,94.310 50.040,97.235 48.836 C 107.325 44.682,106.905 43.840,107.009 68.449 C 107.102 90.449,107.214 91.083,110.219 86.636 C 116.244 77.716,131.300 62.829,141.172 56.030 L 151.152 49.157 151.152 37.712 L 151.152 26.267 159.908 22.499 L 168.664 18.732 131.336 18.582 L 94.009 18.433 94.009 34.299 M241.935 22.499 L 250.691 26.267 250.691 37.826 L 250.691 49.385 259.657 55.139 C 268.488 60.806,285.567 77.628,291.634 86.636 C 294.626 91.079,294.741 90.428,294.834 68.449 C 294.939 43.840,294.519 44.682,304.608 48.836 C 307.533 50.040,307.834 48.686,307.834 34.299 L 307.834 18.433 270.507 18.582 L 233.180 18.732 241.935 22.499 M192.539 80.557 L 197.726 90.147 166.605 127.582 C 149.488 148.171,134.333 166.473,132.927 168.254 C 130.842 170.897,132.154 170.667,140.055 167.006 L 149.738 162.520 184.461 190.937 C 222.740 222.265,223.117 222.508,217.106 212.026 L 212.903 204.698 232.761 184.765 L 252.620 164.831 243.821 160.499 C 238.982 158.116,228.802 153.324,221.198 149.851 L 207.373 143.537 219.449 156.100 L 231.525 168.664 218.528 180.965 L 205.530 193.266 185.268 175.941 C 174.125 166.412,164.801 157.973,164.550 157.188 C 163.697 154.522,204.023 103.380,205.714 104.983 C 207.550 106.723,245.332 129.901,251.443 133.035 C 253.564 134.123,254.470 134.224,253.456 133.258 C 194.690 77.305,187.340 70.947,192.539 80.557 M106.912 222.690 L 106.912 244.973 100.461 242.278 L 94.009 239.582 94.009 255.275 L 94.009 270.968 131.336 270.865 L 168.664 270.762 160.369 267.407 L 152.074 264.053 151.537 253.221 L 151.000 242.389 140.477 235.573 C 128.796 228.007,118.940 218.418,111.700 207.577 L 106.912 200.407 106.912 222.690 M291.925 204.690 C 288.400 212.348,274.842 226.408,262.472 235.235 L 250.691 243.642 250.691 253.548 C 250.691 263.409,250.655 263.472,242.857 267.056 L 235.023 270.657 271.429 270.812 L 307.834 270.968 307.834 255.235 C 307.834 240.251,307.664 239.593,304.269 241.410 C 295.720 245.985,295.081 244.694,294.529 221.741 C 294.101 203.986,293.640 200.966,291.925 204.690 " stroke="none" fill="#000000" fill-rule="evenodd"></path></g></svg>